# xmcd
#
# Track frame offsets: 
#        150
#        14986
#        29450
#        43693
#        58534
#        74624
#        90188
#        103443
#        119990
#        135531
#
# Disc length: 1985 seconds
#
# Revision: 0
# Processed by: cddbd v1.5.2PL0 Copyright (c) Steve Scherf et al.
# Submitted via: ExactAudioCopy v0.99pb4
#
DISCID=9807bf0a
DTITLE=The Nitty Gritty Dirt Band - Plain Dirt Fashion
DYEAR=1984
DGENRE=Folk
TTITLE0=Long Hard Road (The Sharecropper's Dream)
TTITLE1=High Horse
TTITLE2=Face On the Cutting Room Floor
TTITLE3=Two Out of Three Ain't Bad
TTITLE4=Must Be Love
TTITLE5=I Love Only You
TTITLE6=Run With Me
TTITLE7=Cadillac Ranch
TTITLE8='Til the Fire's Burned Out
TTITLE9=Video Tape
EXTD=
EXTT0=
EXTT1=
EXTT2=
EXTT3=
EXTT4=
EXTT5=
EXTT6=
EXTT7=
EXTT8=
EXTT9=
PLAYORDER=
